# Blender 4.2.1 LTS
# www.blender.org
mtllib Character_test.mtl
o Cube
v -1.000000 -1.000000 -0.759013
v -1.000000 0.097889 -0.759013
v -1.000000 -1.000000 -1.000000
v -1.000000 0.097889 -1.000000
v 1.000000 -1.000000 -0.759013
v 1.000000 0.097889 -0.759013
v 1.000000 -1.000000 -1.000000
v 1.000000 0.097889 -1.000000
v -1.000000 -1.000000 0.000000
v 1.000000 -1.000000 0.000000
v -1.000000 -0.783052 -0.759013
v 1.000000 -0.783052 -0.759013
v 1.000000 -0.783052 0.000000
v -1.000000 -0.783052 0.000000
v -0.765691 -0.783052 -0.759013
v -0.765691 0.097889 -0.759013
v -0.765691 -0.783052 0.000000
v -1.000000 0.097889 0.000000
v -0.765691 0.097889 0.000000
v -1.000000 1.074297 -0.759013
v -0.765691 1.074297 -0.759013
v -1.000000 1.074297 0.000000
v -0.765691 1.074297 0.000000
v -0.411439 0.223397 -1.267743
v -0.411439 0.223397 -1.014248
v 0.295667 -0.069496 -1.267743
v 0.295667 -0.069496 -1.014248
v 0.588561 -0.776603 -1.267743
v 0.588561 -0.776603 -1.014248
v 0.295667 -1.483709 -1.267743
v 0.295667 -1.483709 -1.014248
v -0.411439 -1.776603 -1.267743
v -0.411439 -1.776603 -1.014248
v -1.118546 -1.483709 -1.267743
v -1.118546 -1.483709 -1.014248
v -1.411439 -0.776603 -1.267743
v -1.411439 -0.776603 -1.014248
v -1.118546 -0.069496 -1.267743
v -1.118546 -0.069496 -1.014248
v 1.090810 -0.914531 -1.193794
v 1.090810 -0.914531 -1.034378
v 1.362996 -1.027274 -1.193794
v 1.362996 -1.027274 -1.034378
v 1.475739 -1.299460 -1.193794
v 1.475739 -1.299460 -1.034378
v 1.362996 -1.571646 -1.193794
v 1.362996 -1.571646 -1.034378
v 1.090810 -1.684390 -1.193794
v 1.090810 -1.684390 -1.034378
v 0.818624 -1.571646 -1.193794
v 0.818624 -1.571646 -1.034378
v 0.705881 -1.299460 -1.193794
v 0.705881 -1.299460 -1.034378
v 0.818624 -1.027274 -1.193794
v 0.818624 -1.027274 -1.034378
v 1.143205 -1.648789 -0.181332
v 1.681067 -1.648789 -0.181332
v 1.143205 -1.648789 -0.719194
v 1.681067 -1.648789 -0.719194
v 1.143205 -0.617088 -0.181332
v 1.681067 -0.617088 -0.181332
v 1.143205 -0.617088 -0.719194
v 1.681067 -0.617088 -0.719194
v 1.143205 -0.183931 -0.181332
v 1.681067 -0.183931 -0.181332
v 1.143205 -0.183931 -0.719194
v 1.681067 -0.183931 -0.719194
v -0.178533 -0.617088 -0.181332
v -0.178533 -0.617088 -0.719194
v -0.178533 -0.183931 -0.181332
v -0.178533 -0.183931 -0.719194
v -0.178533 -0.617088 0.000000
v -0.178533 -0.183931 0.000000
v -0.723922 -0.617088 -0.181332
v -0.723922 -0.617088 -0.719194
v -0.723922 -0.183931 -0.181332
v -0.723922 -0.183931 -0.719194
v -0.723922 -0.617088 0.000000
v -0.723922 -0.183931 0.000000
v -0.178533 1.084154 -0.181332
v -0.178533 1.084154 -0.719194
v -0.178533 1.084154 0.000000
v -0.723922 1.084154 -0.181332
v -0.723922 1.084154 -0.719194
v -0.723922 1.084154 0.000000
v -0.178533 1.564829 -0.176605
v -0.178533 1.564829 -0.719194
v -0.178533 1.564829 0.000000
v -0.723922 1.564829 -0.176605
v -0.723922 1.564829 -0.719194
v -0.723922 1.564829 0.000000
v -0.178533 1.711881 -0.176605
v -0.178533 1.711881 0.000000
v -0.723922 1.711881 -0.176605
v -0.723922 1.711881 0.000000
v -0.178533 1.711881 -0.507524
v -0.723922 1.711881 -0.507524
v -0.178533 2.539325 -0.507524
v -0.723922 2.539325 -0.507524
v -0.178533 2.539325 0.000000
v -0.723922 2.539325 0.000000
v -0.178533 1.084154 -0.821268
v -0.723922 1.084154 -0.821268
v -0.178533 1.564829 -0.821268
v -0.723922 1.564829 -0.821268
v -0.178533 1.084154 -1.259662
v -0.723922 1.084154 -1.259662
v -0.178533 1.564829 -1.259662
v -0.723922 1.564829 -1.259662
v -0.178533 0.654100 -0.821268
v -0.723922 0.654100 -0.821268
v -0.178533 0.654100 -1.259662
v -0.723922 0.654100 -1.259662
v -0.178533 0.261328 -0.821268
v -0.723922 0.261328 -0.821268
v -0.178533 0.261328 -1.259662
v -0.723922 0.261328 -1.259662
v 0.953626 0.654100 -0.821268
v 0.953626 0.654100 -1.259662
v 0.953626 0.261328 -0.821268
v 0.953626 0.261328 -1.259662
v -1.000000 -1.000000 0.759013
v -1.000000 0.097889 0.759013
v -1.000000 -1.000000 1.000000
v -1.000000 0.097889 1.000000
v 1.000000 -1.000000 0.759013
v 1.000000 0.097889 0.759013
v 1.000000 -1.000000 1.000000
v 1.000000 0.097889 1.000000
v -1.000000 -0.783052 0.759013
v 1.000000 -0.783052 0.759013
v -0.765691 -0.783052 0.759013
v -0.765691 0.097889 0.759013
v -1.000000 1.074297 0.759013
v -0.765691 1.074297 0.759013
v -0.411439 0.223397 1.267743
v -0.411439 0.223397 1.014248
v 0.295667 -0.069496 1.267743
v 0.295667 -0.069496 1.014248
v 0.588561 -0.776603 1.267743
v 0.588561 -0.776603 1.014248
v 0.295667 -1.483709 1.267743
v 0.295667 -1.483709 1.014248
v -0.411439 -1.776603 1.267743
v -0.411439 -1.776603 1.014248
v -1.118546 -1.483709 1.267743
v -1.118546 -1.483709 1.014248
v -1.411439 -0.776603 1.267743
v -1.411439 -0.776603 1.014248
v -1.118546 -0.069496 1.267743
v -1.118546 -0.069496 1.014248
v 1.090810 -0.914531 1.193794
v 1.090810 -0.914531 1.034378
v 1.362996 -1.027274 1.193794
v 1.362996 -1.027274 1.034378
v 1.475739 -1.299460 1.193794
v 1.475739 -1.299460 1.034378
v 1.362996 -1.571646 1.193794
v 1.362996 -1.571646 1.034378
v 1.090810 -1.684390 1.193794
v 1.090810 -1.684390 1.034378
v 0.818624 -1.571646 1.193794
v 0.818624 -1.571646 1.034378
v 0.705881 -1.299460 1.193794
v 0.705881 -1.299460 1.034378
v 0.818624 -1.027274 1.193794
v 0.818624 -1.027274 1.034378
v 1.143205 -1.648789 0.181332
v 1.681067 -1.648789 0.181332
v 1.143205 -1.648789 0.719194
v 1.681067 -1.648789 0.719194
v 1.143205 -0.617088 0.181332
v 1.681067 -0.617088 0.181332
v 1.143205 -0.617088 0.719194
v 1.681067 -0.617088 0.719194
v 1.143205 -0.183931 0.181332
v 1.681067 -0.183931 0.181332
v 1.143205 -0.183931 0.719194
v 1.681067 -0.183931 0.719194
v -0.178533 -0.617088 0.181332
v -0.178533 -0.617088 0.719194
v -0.178533 -0.183931 0.181332
v -0.178533 -0.183931 0.719194
v -0.723922 -0.617088 0.181332
v -0.723922 -0.617088 0.719194
v -0.723922 -0.183931 0.181332
v -0.723922 -0.183931 0.719194
v -0.178533 1.084154 0.181332
v -0.178533 1.084154 0.719194
v -0.723922 1.084154 0.181332
v -0.723922 1.084154 0.719194
v -0.178533 1.564829 0.176605
v -0.178533 1.564829 0.719194
v -0.723922 1.564829 0.176605
v -0.723922 1.564829 0.719194
v -0.178533 1.711881 0.176605
v -0.723922 1.711881 0.176605
v -0.178533 1.711881 0.507524
v -0.723922 1.711881 0.507524
v -0.178533 2.539325 0.507524
v -0.723922 2.539325 0.507524
v -0.178533 1.084154 0.821268
v -0.723922 1.084154 0.821268
v -0.178533 1.564829 0.821268
v -0.723922 1.564829 0.821268
v -0.178533 1.084154 1.259662
v -0.723922 1.084154 1.259662
v -0.178533 1.564829 1.259662
v -0.723922 1.564829 1.259662
v -0.178533 0.654100 0.821268
v -0.723922 0.654100 0.821268
v -0.178533 0.654100 1.259662
v -0.723922 0.654100 1.259662
v -0.178533 0.261328 0.821268
v -0.723922 0.261328 0.821268
v -0.178533 0.261328 1.259662
v -0.723922 0.261328 1.259662
v 0.953626 0.654100 0.821268
v 0.953626 0.654100 1.259662
v 0.953626 0.261328 0.821268
v 0.953626 0.261328 1.259662
vn -1.0000 -0.0000 -0.0000
vn -0.0000 -0.0000 -1.0000
vn 1.0000 -0.0000 -0.0000
vn -0.0000 -0.0000 1.0000
vn -0.0000 -1.0000 -0.0000
vn -0.0000 1.0000 -0.0000
vn 0.3827 0.9239 -0.0000
vn 0.9239 0.3827 -0.0000
vn 0.9239 -0.3827 -0.0000
vn 0.3827 -0.9239 -0.0000
vn -0.3827 -0.9239 -0.0000
vn -0.9239 -0.3827 -0.0000
vn -0.9239 0.3827 -0.0000
vn -0.3827 0.9239 -0.0000
vt 0.375000 0.000000
vt 0.500000 0.000000
vt 0.625000 0.000000
vt 0.625000 0.250000
vt 0.375000 0.250000
vt 0.625000 0.500000
vt 0.375000 0.500000
vt 0.625000 0.750000
vt 0.500000 0.750000
vt 0.375000 0.750000
vt 0.000000 0.000000
vt 0.125000 0.500000
vt 0.125000 0.750000
vt 0.875000 0.500000
vt 0.875000 0.750000
vt 0.750000 0.750000
vt 1.000000 0.500000
vt 1.000000 1.000000
vt 0.875000 1.000000
vt 0.750000 1.000000
vt 0.750000 0.500000
vt 0.625000 1.000000
vt 0.500000 1.000000
vt 0.500000 0.500000
vt 0.375000 1.000000
vt 0.250000 1.000000
vt 0.250000 0.500000
vt 0.419706 0.419706
vt 0.250000 0.490000
vt 0.080294 0.419706
vt 0.010000 0.250000
vt 0.080294 0.080294
vt 0.250000 0.010000
vt 0.419706 0.080294
vt 0.490000 0.250000
vt 0.125000 1.000000
vt 0.000000 1.000000
vt 0.000000 0.500000
vt 0.750000 0.490000
vt 0.919706 0.419706
vt 0.990000 0.250000
vt 0.919706 0.080294
vt 0.750000 0.010000
vt 0.580294 0.080294
vt 0.510000 0.250000
vt 0.580294 0.419706
vt 1.000000 0.000000
s 0
f 1/1/1 11/2/1 2/3/1 4/4/1 3/5/1
f 3/5/2 4/4/2 8/6/2 7/7/2
f 7/7/3 8/6/3 6/8/3 12/9/3 5/10/3
f 12/11/4 15/11/4 11/11/4 1/11/4 5/11/4
f 3/12/5 7/7/5 5/10/5 1/13/5
f 8/6/6 4/14/6 2/15/6 16/16/6 6/8/6
f 9/11/5 1/11/5 5/11/5 10/11/5
f 13/11/3 10/11/3 5/11/3 12/11/3
f 1/11/1 9/11/1 14/11/1 11/11/1
f 13/11/6 12/11/6 15/11/6 17/11/6
f 6/11/4 16/11/4 15/11/4 12/11/4
f 19/16/3 16/11/3 21/11/3 23/16/3
f 2/15/1 11/11/1 14/11/1 18/15/1
f 15/11/3 16/11/3 19/16/3 17/11/3
f 21/16/6 20/15/6 22/15/6 23/16/6
f 2/15/1 18/15/1 22/15/1 20/15/1
f 16/16/2 2/15/2 20/15/2 21/16/2
f 24/17/7 25/18/7 27/19/7 26/14/7
f 26/14/8 27/19/8 29/20/8 28/21/8
f 28/21/9 29/20/9 31/22/9 30/6/9
f 30/6/10 31/22/10 33/23/10 32/24/10
f 32/24/11 33/23/11 35/25/11 34/7/11
f 34/7/12 35/25/12 37/26/12 36/27/12
f 27/28/4 25/29/4 39/30/4 37/31/4 35/32/4 33/33/4 31/34/4 29/35/4
f 36/27/13 37/26/13 39/36/13 38/12/13
f 38/12/14 39/36/14 25/37/14 24/38/14
f 24/39/2 26/40/2 28/41/2 30/42/2 32/43/2 34/44/2 36/45/2 38/46/2
f 40/17/7 41/18/7 43/19/7 42/14/7
f 42/14/8 43/19/8 45/20/8 44/21/8
f 44/21/9 45/20/9 47/22/9 46/6/9
f 46/6/10 47/22/10 49/23/10 48/24/10
f 48/24/11 49/23/11 51/25/11 50/7/11
f 50/7/12 51/25/12 53/26/12 52/27/12
f 43/28/4 41/29/4 55/30/4 53/31/4 51/32/4 49/33/4 47/34/4 45/35/4
f 52/27/13 53/26/13 55/36/13 54/12/13
f 54/12/14 55/36/14 41/37/14 40/38/14
f 40/39/2 42/40/2 44/41/2 46/42/2 48/43/2 50/44/2 52/45/2 54/46/2
f 56/11/5 58/37/5 59/18/5 57/47/5
f 63/18/2 62/37/2 66/37/2 67/18/2
f 59/18/2 58/37/2 62/37/2 63/18/2
f 56/11/4 57/47/4 61/47/4 60/11/4
f 57/47/3 59/18/3 63/18/3 61/47/3
f 58/37/1 56/11/1 60/11/1 62/37/1
f 64/11/6 65/47/6 67/18/6 66/37/6
f 60/11/4 61/47/4 65/47/4 64/11/4
f 61/47/3 63/18/3 67/18/3 65/47/3
f 66/37/2 62/37/2 69/37/2 71/37/2
f 64/11/6 66/37/6 71/37/6 70/11/6
f 60/11/4 64/11/4 70/11/4 68/11/4
f 62/37/5 60/11/5 68/11/5 69/37/5
f 69/37/5 68/11/5 74/11/5 75/37/5
f 74/11/1 78/11/1 79/11/1 76/11/1
f 70/11/3 80/11/3 82/11/3 73/11/3
f 68/11/2 74/11/2 76/11/2 70/11/2
f 71/37/2 77/37/2 84/37/2 81/37/2
f 72/11/5 78/11/5 74/11/5 68/11/5
f 71/37/2 69/37/2 75/37/2 77/37/2
f 77/37/1 75/37/1 74/11/1 78/11/1 79/11/1 76/11/1
f 80/11/3 86/11/3 88/11/3 82/11/3
f 85/11/1 91/11/1 89/11/1 83/11/1
f 79/11/1 85/11/1 83/11/1 76/11/1
f 70/11/3 71/37/3 81/37/3 80/11/3
f 77/37/1 76/11/1 83/11/1 84/37/1
f 73/11/3 72/11/3 68/11/3 70/11/3
f 86/11/3 92/11/3 93/11/3 88/11/3
f 86/11/6 87/37/6 90/37/6 89/11/6
f 84/37/1 90/37/1 105/37/1 103/37/1
f 84/37/1 83/11/1 89/11/1 90/37/1
f 80/11/3 81/37/3 87/37/3 86/11/3
f 92/11/6 94/11/6 95/11/6 93/11/6
f 89/11/2 94/11/2 92/11/2 86/11/2
f 91/11/1 95/11/1 94/11/1 89/11/1
f 94/11/5 97/11/5 96/11/5 92/11/5
f 97/11/2 99/11/2 98/11/2 96/11/2
f 99/11/6 101/11/6 100/11/6 98/11/6
f 96/11/3 98/11/3 100/11/3 93/11/3 92/11/3
f 94/11/1 95/11/1 101/11/1 99/11/1 97/11/1
f 104/37/3 102/37/3 106/37/3 108/37/3
f 90/37/6 87/37/6 104/37/6 105/37/6
f 81/37/5 84/37/5 103/37/5 102/37/5
f 87/37/3 81/37/3 102/37/3 104/37/3
f 106/37/2 107/37/2 109/37/2 108/37/2
f 105/37/6 104/37/6 108/37/6 109/37/6
f 103/37/1 105/37/1 109/37/1 107/37/1
f 106/37/3 102/37/3 110/37/3 112/37/3
f 112/37/6 110/37/6 118/37/6 119/37/6
f 107/37/2 106/37/2 112/37/2 113/37/2
f 103/37/1 107/37/1 113/37/1 111/37/1
f 102/37/4 103/37/4 111/37/4 110/37/4
f 114/37/5 115/37/5 117/37/5 116/37/5
f 110/37/4 111/37/4 115/37/4 114/37/4
f 111/37/1 113/37/1 117/37/1 115/37/1
f 113/37/2 112/37/2 116/37/2 117/37/2
f 119/37/3 118/37/3 120/37/3 121/37/3
f 116/37/2 112/37/2 119/37/2 121/37/2
f 110/37/4 114/37/4 120/37/4 118/37/4
f 114/37/5 116/37/5 121/37/5 120/37/5
f 122/1/1 124/5/1 125/4/1 123/3/1 130/2/1
f 124/5/4 128/7/4 129/6/4 125/4/4
f 128/7/3 126/10/3 131/9/3 127/8/3 129/6/3
f 131/11/2 126/11/2 122/11/2 130/11/2 132/11/2
f 124/12/5 122/13/5 126/10/5 128/7/5
f 129/6/6 127/8/6 133/16/6 123/15/6 125/14/6
f 9/11/5 10/11/5 126/11/5 122/11/5
f 13/11/3 131/11/3 126/11/3 10/11/3
f 122/11/1 130/11/1 14/11/1 9/11/1
f 13/11/6 17/11/6 132/11/6 131/11/6
f 127/11/2 131/11/2 132/11/2 133/11/2
f 19/16/3 23/16/3 135/11/3 133/11/3
f 123/15/1 18/15/1 14/11/1 130/11/1
f 132/11/3 17/11/3 19/16/3 133/11/3
f 135/16/6 23/16/6 22/15/6 134/15/6
f 123/15/1 134/15/1 22/15/1 18/15/1
f 133/16/4 135/16/4 134/15/4 123/15/4
f 136/17/7 138/14/7 139/19/7 137/18/7
f 138/14/8 140/21/8 141/20/8 139/19/8
f 140/21/9 142/6/9 143/22/9 141/20/9
f 142/6/10 144/24/10 145/23/10 143/22/10
f 144/24/11 146/7/11 147/25/11 145/23/11
f 146/7/12 148/27/12 149/26/12 147/25/12
f 139/28/2 141/35/2 143/34/2 145/33/2 147/32/2 149/31/2 151/30/2 137/29/2
f 148/27/13 150/12/13 151/36/13 149/26/13
f 150/12/14 136/38/14 137/37/14 151/36/14
f 136/39/4 150/46/4 148/45/4 146/44/4 144/43/4 142/42/4 140/41/4 138/40/4
f 152/17/7 154/14/7 155/19/7 153/18/7
f 154/14/8 156/21/8 157/20/8 155/19/8
f 156/21/9 158/6/9 159/22/9 157/20/9
f 158/6/10 160/24/10 161/23/10 159/22/10
f 160/24/11 162/7/11 163/25/11 161/23/11
f 162/7/12 164/27/12 165/26/12 163/25/12
f 155/28/2 157/35/2 159/34/2 161/33/2 163/32/2 165/31/2 167/30/2 153/29/2
f 164/27/13 166/12/13 167/36/13 165/26/13
f 166/12/14 152/38/14 153/37/14 167/36/14
f 152/39/4 166/46/4 164/45/4 162/44/4 160/43/4 158/42/4 156/41/4 154/40/4
f 168/11/5 169/47/5 171/18/5 170/37/5
f 175/18/4 179/18/4 178/37/4 174/37/4
f 171/18/4 175/18/4 174/37/4 170/37/4
f 168/11/2 172/11/2 173/47/2 169/47/2
f 169/47/3 173/47/3 175/18/3 171/18/3
f 170/37/1 174/37/1 172/11/1 168/11/1
f 176/11/6 178/37/6 179/18/6 177/47/6
f 172/11/2 176/11/2 177/47/2 173/47/2
f 173/47/3 177/47/3 179/18/3 175/18/3
f 178/37/4 183/37/4 181/37/4 174/37/4
f 176/11/6 182/11/6 183/37/6 178/37/6
f 172/11/2 180/11/2 182/11/2 176/11/2
f 174/37/5 181/37/5 180/11/5 172/11/5
f 181/37/5 185/37/5 184/11/5 180/11/5
f 184/11/1 186/11/1 79/11/1 78/11/1
f 182/11/3 73/11/3 82/11/3 188/11/3
f 180/11/4 182/11/4 186/11/4 184/11/4
f 183/37/4 189/37/4 191/37/4 187/37/4
f 72/11/5 180/11/5 184/11/5 78/11/5
f 183/37/4 187/37/4 185/37/4 181/37/4
f 187/37/1 186/11/1 79/11/1 78/11/1 184/11/1 185/37/1
f 188/11/3 82/11/3 88/11/3 192/11/3
f 85/11/1 190/11/1 194/11/1 91/11/1
f 79/11/1 186/11/1 190/11/1 85/11/1
f 182/11/3 188/11/3 189/37/3 183/37/3
f 187/37/1 191/37/1 190/11/1 186/11/1
f 73/11/3 182/11/3 180/11/3 72/11/3
f 192/11/3 88/11/3 93/11/3 196/11/3
f 192/11/6 194/11/6 195/37/6 193/37/6
f 191/37/1 203/37/1 205/37/1 195/37/1
f 191/37/1 195/37/1 194/11/1 190/11/1
f 188/11/3 192/11/3 193/37/3 189/37/3
f 196/11/6 93/11/6 95/11/6 197/11/6
f 194/11/4 192/11/4 196/11/4 197/11/4
f 91/11/1 194/11/1 197/11/1 95/11/1
f 197/11/5 196/11/5 198/11/5 199/11/5
f 199/11/4 198/11/4 200/11/4 201/11/4
f 201/11/6 200/11/6 100/11/6 101/11/6
f 198/11/3 196/11/3 93/11/3 100/11/3 200/11/3
f 197/11/1 199/11/1 201/11/1 101/11/1 95/11/1
f 204/37/3 208/37/3 206/37/3 202/37/3
f 195/37/6 205/37/6 204/37/6 193/37/6
f 189/37/5 202/37/5 203/37/5 191/37/5
f 193/37/3 204/37/3 202/37/3 189/37/3
f 206/37/4 208/37/4 209/37/4 207/37/4
f 205/37/6 209/37/6 208/37/6 204/37/6
f 203/37/1 207/37/1 209/37/1 205/37/1
f 206/37/3 212/37/3 210/37/3 202/37/3
f 212/37/6 219/37/6 218/37/6 210/37/6
f 207/37/4 213/37/4 212/37/4 206/37/4
f 203/37/1 211/37/1 213/37/1 207/37/1
f 202/37/2 210/37/2 211/37/2 203/37/2
f 214/37/5 216/37/5 217/37/5 215/37/5
f 210/37/2 214/37/2 215/37/2 211/37/2
f 211/37/1 215/37/1 217/37/1 213/37/1
f 213/37/4 217/37/4 216/37/4 212/37/4
f 219/37/3 221/37/3 220/37/3 218/37/3
f 216/37/4 221/37/4 219/37/4 212/37/4
f 210/37/2 218/37/2 220/37/2 214/37/2
f 214/37/5 220/37/5 221/37/5 216/37/5
